<mxfile host="app.diagrams.net" modified="2023-06-18T08:52:04.019Z" agent="Mozilla/5.0 (Windows NT 10.0; Win64; x64) AppleWebKit/537.36 (KHTML, like Gecko) Chrome/114.0.0.0 Safari/537.36" etag="F8P9EpcQ2cZwyr60jFPG" version="21.3.7" type="device">
  <diagram id="C5RBs43oDa-KdzZeNtuy" name="Page-1">
    <mxGraphModel dx="2140" dy="726" grid="1" gridSize="10" guides="1" tooltips="1" connect="1" arrows="1" fold="1" page="1" pageScale="1" pageWidth="827" pageHeight="1169" math="0" shadow="0">
      <root>
        <mxCell id="WIyWlLk6GJQsqaUBKTNV-0" />
        <mxCell id="WIyWlLk6GJQsqaUBKTNV-1" parent="WIyWlLk6GJQsqaUBKTNV-0" />
        <mxCell id="m0gL8d1zl3wzNUjcXdiO-0" value="ログイン&lt;br&gt;or&lt;br&gt;ユーザー登録&lt;br&gt;画面" style="rounded=1;whiteSpace=wrap;html=1;" parent="WIyWlLk6GJQsqaUBKTNV-1" vertex="1">
          <mxGeometry x="-50" y="75" width="150" height="80" as="geometry" />
        </mxCell>
        <mxCell id="m0gL8d1zl3wzNUjcXdiO-1" value="アカウント持ってる？" style="rhombus;whiteSpace=wrap;html=1;" parent="WIyWlLk6GJQsqaUBKTNV-1" vertex="1">
          <mxGeometry x="-75" y="350" width="200" height="100" as="geometry" />
        </mxCell>
        <mxCell id="m0gL8d1zl3wzNUjcXdiO-5" value="" style="endArrow=classic;html=1;rounded=0;" parent="WIyWlLk6GJQsqaUBKTNV-1" source="m0gL8d1zl3wzNUjcXdiO-0" target="m0gL8d1zl3wzNUjcXdiO-1" edge="1">
          <mxGeometry width="50" height="50" relative="1" as="geometry">
            <mxPoint x="40" y="265" as="sourcePoint" />
            <mxPoint x="90" y="215" as="targetPoint" />
          </mxGeometry>
        </mxCell>
        <mxCell id="m0gL8d1zl3wzNUjcXdiO-23" style="edgeStyle=orthogonalEdgeStyle;rounded=0;orthogonalLoop=1;jettySize=auto;html=1;exitX=0.5;exitY=0;exitDx=0;exitDy=0;" parent="WIyWlLk6GJQsqaUBKTNV-1" source="m0gL8d1zl3wzNUjcXdiO-6" target="m0gL8d1zl3wzNUjcXdiO-12" edge="1">
          <mxGeometry relative="1" as="geometry">
            <mxPoint x="260" y="225" as="targetPoint" />
            <Array as="points">
              <mxPoint x="-230" y="215" />
              <mxPoint x="230" y="215" />
            </Array>
          </mxGeometry>
        </mxCell>
        <mxCell id="m0gL8d1zl3wzNUjcXdiO-6" value="アカウント作成" style="rounded=1;whiteSpace=wrap;html=1;" parent="WIyWlLk6GJQsqaUBKTNV-1" vertex="1">
          <mxGeometry x="-320" y="370" width="120" height="60" as="geometry" />
        </mxCell>
        <mxCell id="m0gL8d1zl3wzNUjcXdiO-8" value="" style="endArrow=classic;html=1;rounded=0;" parent="WIyWlLk6GJQsqaUBKTNV-1" source="m0gL8d1zl3wzNUjcXdiO-1" target="m0gL8d1zl3wzNUjcXdiO-6" edge="1">
          <mxGeometry width="50" height="50" relative="1" as="geometry">
            <mxPoint x="40" y="265" as="sourcePoint" />
            <mxPoint x="90" y="215" as="targetPoint" />
          </mxGeometry>
        </mxCell>
        <mxCell id="m0gL8d1zl3wzNUjcXdiO-9" value="No" style="edgeLabel;html=1;align=center;verticalAlign=middle;resizable=0;points=[];" parent="m0gL8d1zl3wzNUjcXdiO-8" vertex="1" connectable="0">
          <mxGeometry x="0.2035" y="-2" relative="1" as="geometry">
            <mxPoint x="13" y="2" as="offset" />
          </mxGeometry>
        </mxCell>
        <mxCell id="m0gL8d1zl3wzNUjcXdiO-10" value="待ち合わせ一覧画面" style="rounded=1;whiteSpace=wrap;html=1;" parent="WIyWlLk6GJQsqaUBKTNV-1" vertex="1">
          <mxGeometry x="190" y="370" width="180" height="60" as="geometry" />
        </mxCell>
        <mxCell id="m0gL8d1zl3wzNUjcXdiO-11" value="Yes" style="endArrow=classic;html=1;rounded=0;fontStyle=2" parent="WIyWlLk6GJQsqaUBKTNV-1" source="m0gL8d1zl3wzNUjcXdiO-1" target="m0gL8d1zl3wzNUjcXdiO-10" edge="1">
          <mxGeometry x="-0.2308" width="50" height="50" relative="1" as="geometry">
            <mxPoint x="125" y="400" as="sourcePoint" />
            <mxPoint x="90" y="390" as="targetPoint" />
            <mxPoint as="offset" />
          </mxGeometry>
        </mxCell>
        <mxCell id="m0gL8d1zl3wzNUjcXdiO-25" style="edgeStyle=orthogonalEdgeStyle;rounded=0;orthogonalLoop=1;jettySize=auto;html=1;exitX=0.5;exitY=1;exitDx=0;exitDy=0;entryX=0.291;entryY=0.028;entryDx=0;entryDy=0;entryPerimeter=0;" parent="WIyWlLk6GJQsqaUBKTNV-1" source="X1hEhQ4lD6fHzQ-npfAj-0" target="m0gL8d1zl3wzNUjcXdiO-10" edge="1">
          <mxGeometry relative="1" as="geometry" />
        </mxCell>
        <mxCell id="X1hEhQ4lD6fHzQ-npfAj-2" value="yes" style="edgeLabel;html=1;align=center;verticalAlign=middle;resizable=0;points=[];" vertex="1" connectable="0" parent="m0gL8d1zl3wzNUjcXdiO-25">
          <mxGeometry x="-0.1973" y="2" relative="1" as="geometry">
            <mxPoint as="offset" />
          </mxGeometry>
        </mxCell>
        <mxCell id="m0gL8d1zl3wzNUjcXdiO-12" value="プロフィール編集" style="rounded=1;whiteSpace=wrap;html=1;" parent="WIyWlLk6GJQsqaUBKTNV-1" vertex="1">
          <mxGeometry x="205" y="75" width="150" height="60" as="geometry" />
        </mxCell>
        <mxCell id="m0gL8d1zl3wzNUjcXdiO-27" value="&lt;div style=&quot;color: rgb(31, 35, 40); background-color: rgb(255, 255, 255); font-family: &amp;quot;Ricty Diminished&amp;quot;, Consolas, &amp;quot;Courier New&amp;quot;, monospace; font-size: 14px; line-height: 19px;&quot;&gt;待ち合わせホスト画面&lt;/div&gt;" style="rounded=1;whiteSpace=wrap;html=1;" parent="WIyWlLk6GJQsqaUBKTNV-1" vertex="1">
          <mxGeometry x="150" y="500" width="140" height="60" as="geometry" />
        </mxCell>
        <mxCell id="m0gL8d1zl3wzNUjcXdiO-28" value="" style="endArrow=classic;startArrow=classic;html=1;rounded=0;entryX=0.165;entryY=0.983;entryDx=0;entryDy=0;entryPerimeter=0;" parent="WIyWlLk6GJQsqaUBKTNV-1" source="m0gL8d1zl3wzNUjcXdiO-27" target="m0gL8d1zl3wzNUjcXdiO-10" edge="1">
          <mxGeometry width="50" height="50" relative="1" as="geometry">
            <mxPoint x="40" y="440" as="sourcePoint" />
            <mxPoint x="90" y="390" as="targetPoint" />
            <Array as="points">
              <mxPoint x="220" y="460" />
            </Array>
          </mxGeometry>
        </mxCell>
        <mxCell id="m0gL8d1zl3wzNUjcXdiO-30" value="変更保存する？" style="rhombus;whiteSpace=wrap;html=1;" parent="WIyWlLk6GJQsqaUBKTNV-1" vertex="1">
          <mxGeometry x="430" y="65" width="180" height="80" as="geometry" />
        </mxCell>
        <mxCell id="m0gL8d1zl3wzNUjcXdiO-33" value="フォーム作成する？" style="rhombus;whiteSpace=wrap;html=1;" parent="WIyWlLk6GJQsqaUBKTNV-1" vertex="1">
          <mxGeometry x="110" y="620" width="185" height="80" as="geometry" />
        </mxCell>
        <mxCell id="m0gL8d1zl3wzNUjcXdiO-34" value="" style="endArrow=classic;html=1;rounded=0;exitX=0.365;exitY=1.005;exitDx=0;exitDy=0;exitPerimeter=0;" parent="WIyWlLk6GJQsqaUBKTNV-1" source="m0gL8d1zl3wzNUjcXdiO-27" target="m0gL8d1zl3wzNUjcXdiO-33" edge="1">
          <mxGeometry width="50" height="50" relative="1" as="geometry">
            <mxPoint x="190" y="620" as="sourcePoint" />
            <mxPoint x="240" y="570" as="targetPoint" />
          </mxGeometry>
        </mxCell>
        <mxCell id="m0gL8d1zl3wzNUjcXdiO-35" value="" style="edgeStyle=segmentEdgeStyle;endArrow=classic;html=1;curved=0;rounded=0;endSize=8;startSize=8;" parent="WIyWlLk6GJQsqaUBKTNV-1" source="m0gL8d1zl3wzNUjcXdiO-33" target="m0gL8d1zl3wzNUjcXdiO-46" edge="1">
          <mxGeometry width="50" height="50" relative="1" as="geometry">
            <mxPoint x="290" y="660" as="sourcePoint" />
            <mxPoint x="340" y="610" as="targetPoint" />
          </mxGeometry>
        </mxCell>
        <mxCell id="m0gL8d1zl3wzNUjcXdiO-36" value="YES" style="edgeLabel;html=1;align=center;verticalAlign=middle;resizable=0;points=[];" parent="m0gL8d1zl3wzNUjcXdiO-35" vertex="1" connectable="0">
          <mxGeometry x="-0.4292" y="-1" relative="1" as="geometry">
            <mxPoint x="36" y="-1" as="offset" />
          </mxGeometry>
        </mxCell>
        <mxCell id="m0gL8d1zl3wzNUjcXdiO-37" value="No" style="edgeStyle=segmentEdgeStyle;endArrow=classic;html=1;curved=0;rounded=0;endSize=8;startSize=8;" parent="WIyWlLk6GJQsqaUBKTNV-1" source="m0gL8d1zl3wzNUjcXdiO-33" target="m0gL8d1zl3wzNUjcXdiO-27" edge="1">
          <mxGeometry width="50" height="50" relative="1" as="geometry">
            <mxPoint x="60" y="660" as="sourcePoint" />
            <mxPoint x="70" y="530" as="targetPoint" />
            <Array as="points">
              <mxPoint x="70" y="660" />
              <mxPoint x="70" y="530" />
            </Array>
          </mxGeometry>
        </mxCell>
        <mxCell id="m0gL8d1zl3wzNUjcXdiO-40" value="Yes" style="edgeStyle=segmentEdgeStyle;endArrow=classic;html=1;curved=0;rounded=0;endSize=8;startSize=8;exitX=0.5;exitY=1;exitDx=0;exitDy=0;entryX=0.764;entryY=0.996;entryDx=0;entryDy=0;entryPerimeter=0;" parent="WIyWlLk6GJQsqaUBKTNV-1" source="m0gL8d1zl3wzNUjcXdiO-30" target="m0gL8d1zl3wzNUjcXdiO-12" edge="1">
          <mxGeometry width="50" height="50" relative="1" as="geometry">
            <mxPoint x="330" y="255" as="sourcePoint" />
            <mxPoint x="380" y="205" as="targetPoint" />
            <Array as="points">
              <mxPoint x="520" y="180" />
              <mxPoint x="320" y="180" />
            </Array>
          </mxGeometry>
        </mxCell>
        <mxCell id="m0gL8d1zl3wzNUjcXdiO-41" value="No" style="edgeStyle=segmentEdgeStyle;endArrow=classic;html=1;curved=0;rounded=0;endSize=8;startSize=8;exitX=0.5;exitY=0;exitDx=0;exitDy=0;entryX=0.5;entryY=0;entryDx=0;entryDy=0;" parent="WIyWlLk6GJQsqaUBKTNV-1" source="m0gL8d1zl3wzNUjcXdiO-30" target="m0gL8d1zl3wzNUjcXdiO-12" edge="1">
          <mxGeometry width="50" height="50" relative="1" as="geometry">
            <mxPoint x="330" y="100" as="sourcePoint" />
            <mxPoint x="380" y="50" as="targetPoint" />
            <Array as="points">
              <mxPoint x="520" y="40" />
              <mxPoint x="280" y="40" />
            </Array>
          </mxGeometry>
        </mxCell>
        <mxCell id="m0gL8d1zl3wzNUjcXdiO-42" value="待ち合わせクライアント&lt;br&gt;スライド画面" style="rounded=1;whiteSpace=wrap;html=1;" parent="WIyWlLk6GJQsqaUBKTNV-1" vertex="1">
          <mxGeometry x="526.66" y="370" width="180" height="60" as="geometry" />
        </mxCell>
        <mxCell id="m0gL8d1zl3wzNUjcXdiO-44" value="待ち合わせ予約する？" style="rhombus;whiteSpace=wrap;html=1;" parent="WIyWlLk6GJQsqaUBKTNV-1" vertex="1">
          <mxGeometry x="509.78999999999996" y="482.5" width="213.75" height="95" as="geometry" />
        </mxCell>
        <mxCell id="m0gL8d1zl3wzNUjcXdiO-45" value="" style="endArrow=classic;html=1;rounded=0;exitX=0.5;exitY=1;exitDx=0;exitDy=0;" parent="WIyWlLk6GJQsqaUBKTNV-1" source="m0gL8d1zl3wzNUjcXdiO-42" target="m0gL8d1zl3wzNUjcXdiO-44" edge="1">
          <mxGeometry width="50" height="50" relative="1" as="geometry">
            <mxPoint x="504.78999999999996" y="535" as="sourcePoint" />
            <mxPoint x="554.79" y="485" as="targetPoint" />
          </mxGeometry>
        </mxCell>
        <mxCell id="m0gL8d1zl3wzNUjcXdiO-46" value="待ち合わせ場所&lt;br&gt;待ち合わせ時間確認&lt;br&gt;画面" style="rounded=1;whiteSpace=wrap;html=1;" parent="WIyWlLk6GJQsqaUBKTNV-1" vertex="1">
          <mxGeometry x="500" y="645" width="233.33" height="70" as="geometry" />
        </mxCell>
        <mxCell id="m0gL8d1zl3wzNUjcXdiO-47" value="" style="endArrow=classic;html=1;rounded=0;exitX=0.5;exitY=1;exitDx=0;exitDy=0;" parent="WIyWlLk6GJQsqaUBKTNV-1" source="m0gL8d1zl3wzNUjcXdiO-44" target="m0gL8d1zl3wzNUjcXdiO-46" edge="1">
          <mxGeometry width="50" height="50" relative="1" as="geometry">
            <mxPoint x="354.78999999999996" y="655" as="sourcePoint" />
            <mxPoint x="614.7875000000004" y="775" as="targetPoint" />
          </mxGeometry>
        </mxCell>
        <mxCell id="m0gL8d1zl3wzNUjcXdiO-48" value="Yes" style="edgeLabel;html=1;align=center;verticalAlign=middle;resizable=0;points=[];" parent="m0gL8d1zl3wzNUjcXdiO-47" vertex="1" connectable="0">
          <mxGeometry x="-0.2059" y="-2" relative="1" as="geometry">
            <mxPoint as="offset" />
          </mxGeometry>
        </mxCell>
        <mxCell id="m0gL8d1zl3wzNUjcXdiO-50" value="" style="endArrow=classic;startArrow=classic;html=1;rounded=0;exitX=1;exitY=0.5;exitDx=0;exitDy=0;" parent="WIyWlLk6GJQsqaUBKTNV-1" source="m0gL8d1zl3wzNUjcXdiO-10" target="m0gL8d1zl3wzNUjcXdiO-42" edge="1">
          <mxGeometry width="50" height="50" relative="1" as="geometry">
            <mxPoint x="370" y="400" as="sourcePoint" />
            <mxPoint x="460" y="400" as="targetPoint" />
          </mxGeometry>
        </mxCell>
        <mxCell id="m0gL8d1zl3wzNUjcXdiO-51" value="" style="endArrow=classic;startArrow=classic;html=1;rounded=0;exitX=0.25;exitY=0;exitDx=0;exitDy=0;" parent="WIyWlLk6GJQsqaUBKTNV-1" source="m0gL8d1zl3wzNUjcXdiO-46" target="m0gL8d1zl3wzNUjcXdiO-10" edge="1">
          <mxGeometry width="50" height="50" relative="1" as="geometry">
            <mxPoint x="290" y="455" as="sourcePoint" />
            <mxPoint x="340" y="405" as="targetPoint" />
          </mxGeometry>
        </mxCell>
        <mxCell id="m0gL8d1zl3wzNUjcXdiO-54" value="No" style="edgeStyle=segmentEdgeStyle;endArrow=classic;html=1;curved=0;rounded=0;endSize=8;startSize=8;exitX=1;exitY=0;exitDx=0;exitDy=0;entryX=1;entryY=0.5;entryDx=0;entryDy=0;" parent="WIyWlLk6GJQsqaUBKTNV-1" source="m0gL8d1zl3wzNUjcXdiO-44" target="m0gL8d1zl3wzNUjcXdiO-42" edge="1">
          <mxGeometry x="0.1133" width="50" height="50" relative="1" as="geometry">
            <mxPoint x="700" y="495" as="sourcePoint" />
            <mxPoint x="750" y="445" as="targetPoint" />
            <Array as="points">
              <mxPoint x="780" y="506" />
              <mxPoint x="780" y="400" />
            </Array>
            <mxPoint as="offset" />
          </mxGeometry>
        </mxCell>
        <mxCell id="X1hEhQ4lD6fHzQ-npfAj-1" value="" style="edgeStyle=orthogonalEdgeStyle;rounded=0;orthogonalLoop=1;jettySize=auto;html=1;exitX=0.25;exitY=1;exitDx=0;exitDy=0;" edge="1" parent="WIyWlLk6GJQsqaUBKTNV-1" source="m0gL8d1zl3wzNUjcXdiO-12" target="X1hEhQ4lD6fHzQ-npfAj-0">
          <mxGeometry relative="1" as="geometry">
            <mxPoint x="243" y="135" as="sourcePoint" />
            <mxPoint x="242" y="372" as="targetPoint" />
          </mxGeometry>
        </mxCell>
        <mxCell id="X1hEhQ4lD6fHzQ-npfAj-0" value="&lt;font style=&quot;font-size: 15px;&quot;&gt;記入漏れ無い？&lt;/font&gt;" style="rhombus;whiteSpace=wrap;html=1;align=center;fillStyle=auto;" vertex="1" parent="WIyWlLk6GJQsqaUBKTNV-1">
          <mxGeometry x="180" y="220" width="190" height="100" as="geometry" />
        </mxCell>
        <mxCell id="X1hEhQ4lD6fHzQ-npfAj-5" value="" style="edgeStyle=elbowEdgeStyle;elbow=horizontal;endArrow=classic;html=1;curved=0;rounded=0;endSize=8;startSize=8;" edge="1" parent="WIyWlLk6GJQsqaUBKTNV-1" source="X1hEhQ4lD6fHzQ-npfAj-0" target="m0gL8d1zl3wzNUjcXdiO-12">
          <mxGeometry width="50" height="50" relative="1" as="geometry">
            <mxPoint x="250" y="310" as="sourcePoint" />
            <mxPoint x="300" y="260" as="targetPoint" />
            <Array as="points">
              <mxPoint x="150" y="270" />
            </Array>
          </mxGeometry>
        </mxCell>
        <mxCell id="X1hEhQ4lD6fHzQ-npfAj-6" value="No" style="edgeLabel;html=1;align=center;verticalAlign=middle;resizable=0;points=[];" vertex="1" connectable="0" parent="X1hEhQ4lD6fHzQ-npfAj-5">
          <mxGeometry x="0.0745" y="-2" relative="1" as="geometry">
            <mxPoint as="offset" />
          </mxGeometry>
        </mxCell>
        <mxCell id="X1hEhQ4lD6fHzQ-npfAj-8" value="" style="edgeStyle=orthogonalEdgeStyle;rounded=0;orthogonalLoop=1;jettySize=auto;html=1;exitX=1;exitY=0.5;exitDx=0;exitDy=0;" edge="1" parent="WIyWlLk6GJQsqaUBKTNV-1" source="m0gL8d1zl3wzNUjcXdiO-12" target="m0gL8d1zl3wzNUjcXdiO-30">
          <mxGeometry relative="1" as="geometry">
            <mxPoint x="355" y="105" as="sourcePoint" />
            <mxPoint x="390" y="105" as="targetPoint" />
          </mxGeometry>
        </mxCell>
      </root>
    </mxGraphModel>
  </diagram>
</mxfile>
